
        <svg xmlns="http://www.w3.org/2000/svg" xmlns:xlink="http://www.w3.org/1999/xlink" version="1.1" width="3187.5" 
        height="1121.9424971614976" viewBox="0 0 3187.5 1121.9424971614976">
			
			<g transform="scale(9.375) translate(10, 10)">
				<defs id="SvgjsDefs1470"></defs><g id="SvgjsG1471" featureKey="S6ay6y-0" transform="matrix(1.2048192771084338,0,0,1.2048192771084338,-10.240963855421688,-10.404030673475152)" fill="#2d4059"><path xmlns="http://www.w3.org/2000/svg" d="M32.628212,8.6361885c-1.3350086,2.6396627-2.1030216,5.61516-2.1008072,8.7757549  c0.0030556,8.8963432,5.9801903,16.3825207,14.1322403,18.705534c3.6843719-7.3044529,2.4856567-16.4400749-3.6176529-22.5373764  C38.6159935,11.1556845,35.708065,9.5134058,32.628212,8.6361885z"></path><path xmlns="http://www.w3.org/2000/svg" d="M36.6367226,44.4209976c-2.2498589-8.2716866-9.7946415-14.3607674-18.7788963-14.3561306  C14.4649076,30.0661316,11.2771158,30.9387112,8.5,32.4654617c0.8604574,3.1732445,2.5209713,6.1744614,5.014431,8.6644402  C19.7794399,47.3903809,29.2442551,48.4790459,36.6367226,44.4209976z"></path><path xmlns="http://www.w3.org/2000/svg" d="M55.8574944,63.100174c-4.2872086,7.4469681-3.2679024,17.1136398,3.1020927,23.474884  c2.2940254,2.2922363,5.0209694,3.880127,7.9149857,4.7891769c1.6449127-2.858284,2.5996017-6.1639252,2.5978088-9.6987228  C69.4694366,72.9555359,63.745388,65.5863647,55.8574944,63.100174z"></path><path xmlns="http://www.w3.org/2000/svg" d="M63.6276436,55.5768967c2.5443764,7.7994499,9.8681145,13.438858,18.5163231,13.4329529  c3.2794952-0.0010529,6.3647232-0.8215637,9.0758514-2.254921c-0.9208527-2.8249702-2.486496-5.485714-4.7325592-7.7296715  C80.2964554,52.8389931,70.9795303,51.6921387,63.6276436,55.5768967z"></path><path xmlns="http://www.w3.org/2000/svg" d="M30.5274048,81.6813278c0.0012646,3.5291061,0.9556408,6.8292618,2.5986557,9.6833267  c2.8991814-0.9107361,5.6306572-2.5032654,7.9271049-4.8024521c6.3580856-6.3627243,7.3740196-16.0220184,3.0891266-23.4626579  C36.2468147,65.587204,30.5213947,72.9648132,30.5274048,81.6813278z"></path><path xmlns="http://www.w3.org/2000/svg" d="M36.3721466,55.576683c-7.3567352-3.8893929-16.6797752-2.7372704-22.8689957,3.4578514  c-2.241004,2.242691-3.8027496,4.9006958-4.72192,7.7218742c2.7157688,1.4356766,5.8073206,2.2557602,9.0932493,2.2534409  C26.5151005,69.006897,33.8301964,63.3696022,36.3721466,55.576683z"></path><path xmlns="http://www.w3.org/2000/svg" d="M69.4723816,17.3963432c-0.0010529-3.1555357-0.7696991-6.1255512-2.1030197-8.7609978  c-3.0833282,0.8789034-5.9938965,2.5245552-8.4208412,4.9538212c-6.0945625,6.0989876-7.2872696,15.2284966-3.6074257,22.5278873  C63.4990463,33.7925644,69.4770203,26.2994328,69.4723816,17.3963432z"></path><path xmlns="http://www.w3.org/2000/svg" d="M63.3639107,44.4203644c7.3991051,4.060791,16.8699303,2.9689598,23.1346245-3.3035316  c2.4859772-2.4876633,4.1424866-5.4840279,5.0014648-8.6517944c-2.7815399-1.5288563-5.9742889-2.4018574-9.3726883-2.4001713  C73.1491699,30.0682411,65.6136627,36.1560555,63.3639107,44.4203644z"></path></g><g id="SvgjsG1472" featureKey="j5pGhi-0" transform="matrix(2.277833982724213,0,0,2.277833982724213,117.68638315478233,19.123495489455294)" fill="#2d4059"><path d="M10.547 15.6348 l1.1523 0.61523 q-0.556640625 1.123046875 -1.30859375 1.806640625 t-1.6895 1.04 t-2.1191 0.35645 q-2.6171875 0 -4.091796875 -1.713867188 t-1.4746 -3.8721 q0 -2.041015625 1.25 -3.6328125 q1.58203125 -2.03125 4.248046875 -2.03125 q2.724609375 0 4.365234375 2.080078125 q1.162109375 1.46484375 1.171875 3.65234375 l-9.6191 0 q0.0390625 1.875 1.19140625 3.071289063 t2.8418 1.1963 q0.8203125 0 1.591796875 -0.2880859375 t1.3135 -0.75684 t1.1768 -1.5234 z M10.547 12.7539 q-0.2734375 -1.103515625 -0.80078125 -1.762695313 t-1.3965 -1.0645 t-1.8262 -0.40527 q-1.572265625 0 -2.705078125 1.015625 q-0.8203125 0.7421875 -1.240234375 2.216796875 l7.9688 0 z M24.5219375 17.3633 q0.87890625 -1.46484375 1.0546875 -2.880859375 q0 -10.16601563 0 -10.14648438 l-1.3672 0 l0 5.9766 q-0.869140625 -1.064453125 -1.943359375 -1.586914063 t-2.3535 -0.52246 q-2.265625 0 -3.876953125 1.650390625 t-1.6113 4.0039 q0 2.314453125 1.62109375 3.955078125 t3.9063 1.6406 q1.30859375 0 2.456054688 -0.5029296875 t2.1143 -1.5869 z M20.0683375 18.1348 q-1.162109375 0 -2.133789063 -0.5712890625 t-1.5479 -1.5869 t-0.57617 -2.168 q0 -1.1328125 0.5810546875 -2.172851563 t1.5625 -1.6113 t2.0947 -0.57129 q1.1328125 0 2.1484375 0.5712890625 t1.5625 1.5527 t0.54688 2.1924 q0 1.865234375 -1.23046875 3.115234375 t-3.0078 1.25 z M39.013234374999996 17.0117 q0 2.255859375 -0.400390625 3.30078125 q-0.537109375 1.474609375 -1.879882813 2.270507813 t-3.2178 0.7959 q-1.38671875 0 -2.48046875 -0.390625 t-1.7871 -1.0449 t-1.2695 -1.9141 l1.4941 0 q0.615234375 1.064453125 1.577148438 1.572265625 t2.3975 0.50781 q1.40625 0 2.377929688 -0.52734375 t1.3818 -1.3184 t0.41016 -2.5684 l0 -0.54688 q-0.771484375 0.986328125 -1.899414063 1.513671875 t-2.3779 0.52734 q-1.474609375 0 -2.778320313 -0.732421875 t-2.0117 -1.9775 t-0.70801 -2.7295 t0.7373 -2.7686 t2.0459 -2.0313 t2.7441 -0.74707 q1.2109375 0 2.197265625 0.37109375 q0.830078125 0.302734375 1.962890625 1.162109375 q0.95703125 0.791015625 1.50390625 3.017578125 q-0.01953125 0.29296875 -0.01953125 4.2578125 z M33.544934375 9.531 q-1.171875 0 -2.172851563 0.56640625 t-1.5723 1.5625 t-0.57129 2.1582 q0 1.767578125 1.181640625 2.919921875 t3.0566 1.1523 q1.9140625 0 3.06640625 -1.142578125 t1.1523 -3.0078 q0 -1.2109375 -0.5322265625 -2.158203125 t-1.5039 -1.499 t-2.1045 -0.55176 z M50.95715625 15.6348 l1.1523 0.61523 q-0.556640625 1.123046875 -1.30859375 1.806640625 t-1.6895 1.04 t-2.1191 0.35645 q-2.6171875 0 -4.091796875 -1.713867188 t-1.4746 -3.8721 q0 -2.041015625 1.25 -3.6328125 q1.58203125 -2.03125 4.248046875 -2.03125 q2.724609375 0 4.365234375 2.080078125 q1.162109375 1.46484375 1.171875 3.65234375 l-9.6191 0 q0.0390625 1.875 1.19140625 3.071289063 t2.8418 1.1963 q0.8203125 0 1.591796875 -0.2880859375 t1.3135 -0.75684 t1.1768 -1.5234 z M50.95715625 12.7539 q-0.2734375 -1.103515625 -0.80078125 -1.762695313 t-1.3965 -1.0645 t-1.8262 -0.40527 q-1.572265625 0 -2.705078125 1.015625 q-0.8203125 0.7421875 -1.240234375 2.216796875 l7.9688 0 z M55.00979375 4.59 l1.3867 0 l0 8.457 l4.9512 -4.3164 l2.0313 0 l-4.4824 4.0723 l4.8242 6.6406 l-1.9531 0 l-4.2188 -5.7617 l-1.1523 0.94727 l0 4.8145 l-1.3867 0 l0 -14.854 z M70.195315625 8.203 q2.470703125 0 4.1015625 1.787109375 q1.50390625 1.630859375 1.50390625 3.876953125 q0.01953125 5.546875 0 5.634765625 l-1.4551 0 l0 -2.4316 q-1.142578125 2.12890625 -4.150390625 2.3828125 q-2.4609375 0 -4.018554688 -1.674804688 t-1.5576 -3.9111 q0 -2.2265625 1.474609375 -3.8671875 q1.630859375 -1.796875 4.1015625 -1.796875 z M70.195315625 9.551 q-1.708984375 0 -2.939453125 1.26953125 t-1.2305 3.0664 q0 1.162109375 0.6298828125 2.236328125 t2.1338 1.8164 q3.76953125 0.83984375 5.361328125 -3.427734375 q0.087890625 -1.3671875 -0.29296875 -2.6171875 q-0.2734375 -0.56640625 -0.751953125 -1.07421875 q-1.201171875 -1.26953125 -2.91015625 -1.26953125 z M77.949259375 14.541 l0 -1.2891 q0.15625 -0.966796875 0.44921875 -1.572265625 q0.68359375 -1.6796875 1.8359375 -2.4609375 t1.9141 -0.78125 q0.56640625 0 1.2109375 0.37109375 l-0.71289 1.1523 q-0.908203125 -0.33203125 -1.801757813 0.537109375 t-1.2354 1.8945 q-0.25390625 0.908203125 -0.25390625 3.408203125 l0 3.623 l-1.4063 0 l0 -4.8828 z M88.388646875 17.9297 q-1.015625 0.546875 -1.9921875 0.087890625 q-1.19140625 -0.908203125 -1.1328125 -2.587890625 l0 -4.5313 l2.5391 0 l0 -1.1816 l-2.5488 0 l0 -5.1758 l-1.3867 0 l0 11.123 q-0.01953125 1.171875 0.537109375 2.1484375 q0.91796875 1.552734375 2.5 1.640625 q0.83984375 0.029296875 1.9140625 -0.380859375 q-0.166015625 -0.41015625 -0.4296875 -1.142578125 z"></path></g>
			</g>
		</svg>
	